<?xml version="1.0" standalone="no"?><!DOCTYPE svg PUBLIC "-//W3C//DTD SVG 1.1//EN" "http://www.w3.org/Graphics/SVG/1.1/DTD/svg11.dtd"><svg t="1529053198931" class="icon" style="" viewBox="0 0 1024 1024" version="1.1" xmlns="http://www.w3.org/2000/svg" p-id="1519" xmlns:xlink="http://www.w3.org/1999/xlink" width="200" height="200"><defs><style type="text/css"></style></defs><path d="M1014.443 333.597c10.923-16.384 7.282-38.229-7.282-50.973-16.384-12.743-38.229-9.102-50.973 7.282-1.821 1.821-203.89 240.299-444.189 240.299-233.017 0-444.189-240.299-446.009-242.119-12.743-14.563-36.409-16.384-50.973-3.641-14.563 12.743-16.384 36.409-3.641 50.973 3.641 5.461 47.331 54.613 116.509 109.227l-92.843 96.483c-14.563 14.563-12.743 38.229 1.821 50.973 3.641 7.282 12.743 10.923 21.845 10.923 9.102 0 18.205-3.641 25.486-10.923l100.125-103.765c47.331 32.768 103.765 63.715 165.661 85.561l-38.229 129.251c-5.461 20.025 5.461 40.050 25.486 45.511 3.641 0 7.282 0 10.923 0 16.384 0 30.947-10.923 34.589-27.307l38.229-129.251c29.127 5.461 60.075 9.102 91.022 9.102s61.895-3.641 91.022-9.102l38.229 127.431c3.641 16.384 20.025 27.307 34.589 27.307 3.641 0 7.282 0 9.102-1.821 20.025-5.461 30.947-25.486 25.486-45.511l-38.229-127.431c61.895-21.845 118.329-52.793 165.661-85.561l98.304 101.945c7.282 7.282 16.384 10.923 25.486 10.923s18.205-3.641 25.486-10.923c14.563-14.563 14.563-36.409 1.821-50.973l-92.843-96.483c74.638-54.613 118.329-107.406 118.329-107.406z" p-id="1520" fill="#b3b3b3"></path></svg>