<svg id="图层_1" data-name="图层 1" xmlns="http://www.w3.org/2000/svg" viewBox="0 0 20 20"><defs><style>.cls-1{fill:#b2b2b2;}</style></defs><title>0</title><path class="cls-1" d="M14,9.5a1,1,0,0,1,1,1V17a1,1,0,0,1-1,1H6a1,1,0,0,1-1-1V10.5a1,1,0,0,1,1-1h8m0-1H6a2,2,0,0,0-2,2V17a2,2,0,0,0,2,2h8a2,2,0,0,0,2-2V10.5a2,2,0,0,0-2-2Z"/><path class="cls-1" d="M10,13.5a.5.5,0,1,0,.5.5.5.5,0,0,0-.5-.5Z"/><path class="cls-1" d="M10,2a3,3,0,0,1,3,3V8.5H7V5a3,3,0,0,1,3-3m0-1A4,4,0,0,0,6,5V9.5h8V5a4,4,0,0,0-4-4Z"/></svg>