<svg id="图层_1" data-name="图层 1" xmlns="http://www.w3.org/2000/svg" viewBox="0 0 20 20"><defs><style>.cls-1{fill:#b2b2b2;}.cls-2{fill:none;stroke:#b2b2b2;stroke-miterlimit:10;}</style></defs><title>0</title><path class="cls-1" d="M14,2a1,1,0,0,1,1,1V17a1,1,0,0,1-1,1H6a1,1,0,0,1-1-1V3A1,1,0,0,1,6,2h8m0-1H6A2,2,0,0,0,4,3V17a2,2,0,0,0,2,2h8a2,2,0,0,0,2-2V3a2,2,0,0,0-2-2Z"/><line class="cls-2" x1="4" y1="13.12" x2="16" y2="13.12"/><path class="cls-1" d="M10,15.12a.5.5,0,0,0-.5.5.5.5,0,0,0,1,0,.5.5,0,0,0-.5-.5Z"/></svg>